# xmcd
#
# Track frame offsets:
# 150
# 15084
# 46177
# 86874
#
# Disc length: 1353 seconds
#
# Revision: 0
# Processed by: cddbd v1.5.1PL2 Copyright (c) Steve Scherf et al.
# Submitted via: Audion 3.0.2 (http://www.panic.com/audion/)
#
DISCID=20054704
DTITLE=Pink - Stupid Girls
DYEAR=1900
DGENRE=
TTITLE0=Stupid Girls (Album Version)
TTITLE1=Stupid Girls (D-Bop 3am at Crash Mix)
TTITLE2=Stupid Girls (Junior Vasquez and Dynamix Club Remix)
TTITLE3=Stupid Girls (Noize Trip remix)
EXTD=
EXTT0=
EXTT1=
EXTT2=
EXTT3=
PLAYORDER=
